<?xml version="1.0" encoding="utf-8" standalone="no"?>
<!DOCTYPE svg PUBLIC "-//W3C//DTD SVG 1.1//EN"
  "http://www.w3.org/Graphics/SVG/1.1/DTD/svg11.dtd">
<svg xmlns:xlink="http://www.w3.org/1999/xlink" width="453.6pt" height="207.845804pt" viewBox="0 0 453.6 207.845804" xmlns="http://www.w3.org/2000/svg" version="1.1">
 <metadata>
  <rdf:RDF xmlns:dc="http://purl.org/dc/elements/1.1/" xmlns:cc="http://creativecommons.org/ns#" xmlns:rdf="http://www.w3.org/1999/02/22-rdf-syntax-ns#">
   <cc:Work>
    <dc:type rdf:resource="http://purl.org/dc/dcmitype/StillImage"/>
    <dc:date>2023-05-31T23:10:17.480575</dc:date>
    <dc:format>image/svg+xml</dc:format>
    <dc:creator>
     <cc:Agent>
      <dc:title>Matplotlib v3.7.1, https://matplotlib.org/</dc:title>
     </cc:Agent>
    </dc:creator>
   </cc:Work>
  </rdf:RDF>
 </metadata>
 <defs>
  <style type="text/css">*{stroke-linejoin: round; stroke-linecap: butt}</style>
 </defs>
 <g id="figure_1">
  <g id="patch_1">
   <path d="M 0 207.845804 
L 453.6 207.845804 
L 453.6 0 
L 0 0 
z
" style="fill: #ffffff"/>
  </g>
  <g id="axes_1">
   <g id="patch_2">
    <path d="M 84.958692 134.705304 
C 93.404321 129.807597 100.002851 122.257894 103.726011 113.232692 
C 107.449172 104.207491 108.092968 94.201286 105.557076 84.773378 
C 103.021183 75.345471 97.444544 67.012422 89.696186 61.072798 
C 81.947828 55.133174 72.452287 51.912411 62.689286 51.912411 
L 62.689286 96.303839 
z
" style="fill: #178600"/>
   </g>
   <g id="patch_3">
    <path d="M 29.462774 125.741873 
C 36.256002 133.409345 45.498258 138.493952 55.611128 140.127333 
C 65.723998 141.760715 76.097029 139.844274 84.958692 134.705304 
L 62.689286 96.303839 
z
" style="fill: #3572a5"/>
   </g>
   <g id="patch_4">
    <path d="M 22.853506 76.715333 
C 18.966627 84.619808 17.519 93.505129 18.69582 102.234598 
C 19.87264 110.964068 23.621488 119.148853 29.462774 125.741873 
L 62.689286 96.303839 
z
" style="fill: #3d6117"/>
   </g>
   <g id="patch_5">
    <path d="M 49.248902 53.995979 
C 43.545048 55.807983 38.266095 58.754884 33.730183 62.659088 
C 29.19427 66.563292 25.494386 71.344759 22.853506 76.715333 
L 62.689286 96.303839 
z
" style="fill: #dea584"/>
   </g>
   <g id="patch_6">
    <path d="M 55.074596 52.57038 
C 54.08897 52.741993 53.109427 52.946877 52.137646 53.184681 
C 51.165864 53.422484 50.2024 53.693072 49.248902 53.995979 
L 62.689286 96.303839 
z
" style="fill: #f1e05a"/>
   </g>
   <g id="patch_7">
    <path d="M 58.755151 52.087083 
C 58.138692 52.141932 57.523447 52.209667 56.909819 52.290243 
C 56.296192 52.370818 55.684317 52.464218 55.074596 52.57038 
L 62.689286 96.303839 
z
" style="fill: #f34b7d"/>
   </g>
   <g id="patch_8">
    <path d="M 62.68929 51.912411 
C 62.032712 51.912411 61.376215 51.926977 60.720283 51.9561 
C 60.064351 51.985223 59.409146 52.028895 58.755151 52.087083 
L 62.689286 96.303839 
z
" style="fill: #aaaaaa"/>
   </g>
   <g id="text_1">
    <!-- My Github stats -->
    <g transform="translate(15.432723 34.814554) scale(0.12 -0.12)">
     <defs>
      <path id="DejaVuSans-4d" d="M 628 4666 
L 1569 4666 
L 2759 1491 
L 3956 4666 
L 4897 4666 
L 4897 0 
L 4281 0 
L 4281 4097 
L 3078 897 
L 2444 897 
L 1241 4097 
L 1241 0 
L 628 0 
L 628 4666 
z
" transform="scale(0.015625)"/>
      <path id="DejaVuSans-79" d="M 2059 -325 
Q 1816 -950 1584 -1140 
Q 1353 -1331 966 -1331 
L 506 -1331 
L 506 -850 
L 844 -850 
Q 1081 -850 1212 -737 
Q 1344 -625 1503 -206 
L 1606 56 
L 191 3500 
L 800 3500 
L 1894 763 
L 2988 3500 
L 3597 3500 
L 2059 -325 
z
" transform="scale(0.015625)"/>
      <path id="DejaVuSans-20" transform="scale(0.015625)"/>
      <path id="DejaVuSans-47" d="M 3809 666 
L 3809 1919 
L 2778 1919 
L 2778 2438 
L 4434 2438 
L 4434 434 
Q 4069 175 3628 42 
Q 3188 -91 2688 -91 
Q 1594 -91 976 548 
Q 359 1188 359 2328 
Q 359 3472 976 4111 
Q 1594 4750 2688 4750 
Q 3144 4750 3555 4637 
Q 3966 4525 4313 4306 
L 4313 3634 
Q 3963 3931 3569 4081 
Q 3175 4231 2741 4231 
Q 1884 4231 1454 3753 
Q 1025 3275 1025 2328 
Q 1025 1384 1454 906 
Q 1884 428 2741 428 
Q 3075 428 3337 486 
Q 3600 544 3809 666 
z
" transform="scale(0.015625)"/>
      <path id="DejaVuSans-69" d="M 603 3500 
L 1178 3500 
L 1178 0 
L 603 0 
L 603 3500 
z
M 603 4863 
L 1178 4863 
L 1178 4134 
L 603 4134 
L 603 4863 
z
" transform="scale(0.015625)"/>
      <path id="DejaVuSans-74" d="M 1172 4494 
L 1172 3500 
L 2356 3500 
L 2356 3053 
L 1172 3053 
L 1172 1153 
Q 1172 725 1289 603 
Q 1406 481 1766 481 
L 2356 481 
L 2356 0 
L 1766 0 
Q 1100 0 847 248 
Q 594 497 594 1153 
L 594 3053 
L 172 3053 
L 172 3500 
L 594 3500 
L 594 4494 
L 1172 4494 
z
" transform="scale(0.015625)"/>
      <path id="DejaVuSans-68" d="M 3513 2113 
L 3513 0 
L 2938 0 
L 2938 2094 
Q 2938 2591 2744 2837 
Q 2550 3084 2163 3084 
Q 1697 3084 1428 2787 
Q 1159 2491 1159 1978 
L 1159 0 
L 581 0 
L 581 4863 
L 1159 4863 
L 1159 2956 
Q 1366 3272 1645 3428 
Q 1925 3584 2291 3584 
Q 2894 3584 3203 3211 
Q 3513 2838 3513 2113 
z
" transform="scale(0.015625)"/>
      <path id="DejaVuSans-75" d="M 544 1381 
L 544 3500 
L 1119 3500 
L 1119 1403 
Q 1119 906 1312 657 
Q 1506 409 1894 409 
Q 2359 409 2629 706 
Q 2900 1003 2900 1516 
L 2900 3500 
L 3475 3500 
L 3475 0 
L 2900 0 
L 2900 538 
Q 2691 219 2414 64 
Q 2138 -91 1772 -91 
Q 1169 -91 856 284 
Q 544 659 544 1381 
z
M 1991 3584 
L 1991 3584 
z
" transform="scale(0.015625)"/>
      <path id="DejaVuSans-62" d="M 3116 1747 
Q 3116 2381 2855 2742 
Q 2594 3103 2138 3103 
Q 1681 3103 1420 2742 
Q 1159 2381 1159 1747 
Q 1159 1113 1420 752 
Q 1681 391 2138 391 
Q 2594 391 2855 752 
Q 3116 1113 3116 1747 
z
M 1159 2969 
Q 1341 3281 1617 3432 
Q 1894 3584 2278 3584 
Q 2916 3584 3314 3078 
Q 3713 2572 3713 1747 
Q 3713 922 3314 415 
Q 2916 -91 2278 -91 
Q 1894 -91 1617 61 
Q 1341 213 1159 525 
L 1159 0 
L 581 0 
L 581 4863 
L 1159 4863 
L 1159 2969 
z
" transform="scale(0.015625)"/>
      <path id="DejaVuSans-73" d="M 2834 3397 
L 2834 2853 
Q 2591 2978 2328 3040 
Q 2066 3103 1784 3103 
Q 1356 3103 1142 2972 
Q 928 2841 928 2578 
Q 928 2378 1081 2264 
Q 1234 2150 1697 2047 
L 1894 2003 
Q 2506 1872 2764 1633 
Q 3022 1394 3022 966 
Q 3022 478 2636 193 
Q 2250 -91 1575 -91 
Q 1294 -91 989 -36 
Q 684 19 347 128 
L 347 722 
Q 666 556 975 473 
Q 1284 391 1588 391 
Q 1994 391 2212 530 
Q 2431 669 2431 922 
Q 2431 1156 2273 1281 
Q 2116 1406 1581 1522 
L 1381 1569 
Q 847 1681 609 1914 
Q 372 2147 372 2553 
Q 372 3047 722 3315 
Q 1072 3584 1716 3584 
Q 2034 3584 2315 3537 
Q 2597 3491 2834 3397 
z
" transform="scale(0.015625)"/>
      <path id="DejaVuSans-61" d="M 2194 1759 
Q 1497 1759 1228 1600 
Q 959 1441 959 1056 
Q 959 750 1161 570 
Q 1363 391 1709 391 
Q 2188 391 2477 730 
Q 2766 1069 2766 1631 
L 2766 1759 
L 2194 1759 
z
M 3341 1997 
L 3341 0 
L 2766 0 
L 2766 531 
Q 2569 213 2275 61 
Q 1981 -91 1556 -91 
Q 1019 -91 701 211 
Q 384 513 384 1019 
Q 384 1609 779 1909 
Q 1175 2209 1959 2209 
L 2766 2209 
L 2766 2266 
Q 2766 2663 2505 2880 
Q 2244 3097 1772 3097 
Q 1472 3097 1187 3025 
Q 903 2953 641 2809 
L 641 3341 
Q 956 3463 1253 3523 
Q 1550 3584 1831 3584 
Q 2591 3584 2966 3190 
Q 3341 2797 3341 1997 
z
" transform="scale(0.015625)"/>
     </defs>
     <use xlink:href="#DejaVuSans-4d"/>
     <use xlink:href="#DejaVuSans-79" x="86.279297"/>
     <use xlink:href="#DejaVuSans-20" x="145.458984"/>
     <use xlink:href="#DejaVuSans-47" x="177.246094"/>
     <use xlink:href="#DejaVuSans-69" x="254.736328"/>
     <use xlink:href="#DejaVuSans-74" x="282.519531"/>
     <use xlink:href="#DejaVuSans-68" x="321.728516"/>
     <use xlink:href="#DejaVuSans-75" x="385.107422"/>
     <use xlink:href="#DejaVuSans-62" x="448.486328"/>
     <use xlink:href="#DejaVuSans-20" x="511.962891"/>
     <use xlink:href="#DejaVuSans-73" x="543.75"/>
     <use xlink:href="#DejaVuSans-74" x="595.849609"/>
     <use xlink:href="#DejaVuSans-61" x="635.058594"/>
     <use xlink:href="#DejaVuSans-74" x="696.337891"/>
     <use xlink:href="#DejaVuSans-73" x="735.546875"/>
    </g>
   </g>
   <g id="legend_1">
    <g id="patch_9">
     <path d="M 125.178571 146.793125 
L 245.622321 146.793125 
Q 247.622321 146.793125 247.622321 144.793125 
L 247.622321 43.04625 
Q 247.622321 41.04625 245.622321 41.04625 
L 125.178571 41.04625 
Q 123.178571 41.04625 123.178571 43.04625 
L 123.178571 144.793125 
Q 123.178571 146.793125 125.178571 146.793125 
z
" style="fill: #ffffff; opacity: 0.8; stroke: #cccccc; stroke-linejoin: miter"/>
    </g>
    <g id="patch_10">
     <path d="M 127.178571 52.644688 
L 147.178571 52.644688 
L 147.178571 45.644688 
L 127.178571 45.644688 
z
" style="fill: #178600"/>
    </g>
    <g id="text_2">
     <!-- C#: 41.64% -->
     <g transform="translate(155.178571 52.644688) scale(0.1 -0.1)">
      <defs>
       <path id="DejaVuSans-43" d="M 4122 4306 
L 4122 3641 
Q 3803 3938 3442 4084 
Q 3081 4231 2675 4231 
Q 1875 4231 1450 3742 
Q 1025 3253 1025 2328 
Q 1025 1406 1450 917 
Q 1875 428 2675 428 
Q 3081 428 3442 575 
Q 3803 722 4122 1019 
L 4122 359 
Q 3791 134 3420 21 
Q 3050 -91 2638 -91 
Q 1578 -91 968 557 
Q 359 1206 359 2328 
Q 359 3453 968 4101 
Q 1578 4750 2638 4750 
Q 3056 4750 3426 4639 
Q 3797 4528 4122 4306 
z
" transform="scale(0.015625)"/>
       <path id="DejaVuSans-23" d="M 3272 2816 
L 2363 2816 
L 2100 1772 
L 3016 1772 
L 3272 2816 
z
M 2803 4594 
L 2478 3297 
L 3391 3297 
L 3719 4594 
L 4219 4594 
L 3897 3297 
L 4872 3297 
L 4872 2816 
L 3775 2816 
L 3519 1772 
L 4513 1772 
L 4513 1294 
L 3397 1294 
L 3072 0 
L 2572 0 
L 2894 1294 
L 1978 1294 
L 1656 0 
L 1153 0 
L 1478 1294 
L 494 1294 
L 494 1772 
L 1594 1772 
L 1856 2816 
L 850 2816 
L 850 3297 
L 1978 3297 
L 2297 4594 
L 2803 4594 
z
" transform="scale(0.015625)"/>
       <path id="DejaVuSans-3a" d="M 750 794 
L 1409 794 
L 1409 0 
L 750 0 
L 750 794 
z
M 750 3309 
L 1409 3309 
L 1409 2516 
L 750 2516 
L 750 3309 
z
" transform="scale(0.015625)"/>
       <path id="DejaVuSans-34" d="M 2419 4116 
L 825 1625 
L 2419 1625 
L 2419 4116 
z
M 2253 4666 
L 3047 4666 
L 3047 1625 
L 3713 1625 
L 3713 1100 
L 3047 1100 
L 3047 0 
L 2419 0 
L 2419 1100 
L 313 1100 
L 313 1709 
L 2253 4666 
z
" transform="scale(0.015625)"/>
       <path id="DejaVuSans-31" d="M 794 531 
L 1825 531 
L 1825 4091 
L 703 3866 
L 703 4441 
L 1819 4666 
L 2450 4666 
L 2450 531 
L 3481 531 
L 3481 0 
L 794 0 
L 794 531 
z
" transform="scale(0.015625)"/>
       <path id="DejaVuSans-2e" d="M 684 794 
L 1344 794 
L 1344 0 
L 684 0 
L 684 794 
z
" transform="scale(0.015625)"/>
       <path id="DejaVuSans-36" d="M 2113 2584 
Q 1688 2584 1439 2293 
Q 1191 2003 1191 1497 
Q 1191 994 1439 701 
Q 1688 409 2113 409 
Q 2538 409 2786 701 
Q 3034 994 3034 1497 
Q 3034 2003 2786 2293 
Q 2538 2584 2113 2584 
z
M 3366 4563 
L 3366 3988 
Q 3128 4100 2886 4159 
Q 2644 4219 2406 4219 
Q 1781 4219 1451 3797 
Q 1122 3375 1075 2522 
Q 1259 2794 1537 2939 
Q 1816 3084 2150 3084 
Q 2853 3084 3261 2657 
Q 3669 2231 3669 1497 
Q 3669 778 3244 343 
Q 2819 -91 2113 -91 
Q 1303 -91 875 529 
Q 447 1150 447 2328 
Q 447 3434 972 4092 
Q 1497 4750 2381 4750 
Q 2619 4750 2861 4703 
Q 3103 4656 3366 4563 
z
" transform="scale(0.015625)"/>
       <path id="DejaVuSans-25" d="M 4653 2053 
Q 4381 2053 4226 1822 
Q 4072 1591 4072 1178 
Q 4072 772 4226 539 
Q 4381 306 4653 306 
Q 4919 306 5073 539 
Q 5228 772 5228 1178 
Q 5228 1588 5073 1820 
Q 4919 2053 4653 2053 
z
M 4653 2450 
Q 5147 2450 5437 2106 
Q 5728 1763 5728 1178 
Q 5728 594 5436 251 
Q 5144 -91 4653 -91 
Q 4153 -91 3862 251 
Q 3572 594 3572 1178 
Q 3572 1766 3864 2108 
Q 4156 2450 4653 2450 
z
M 1428 4353 
Q 1159 4353 1004 4120 
Q 850 3888 850 3481 
Q 850 3069 1003 2837 
Q 1156 2606 1428 2606 
Q 1700 2606 1854 2837 
Q 2009 3069 2009 3481 
Q 2009 3884 1853 4118 
Q 1697 4353 1428 4353 
z
M 4250 4750 
L 4750 4750 
L 1831 -91 
L 1331 -91 
L 4250 4750 
z
M 1428 4750 
Q 1922 4750 2215 4408 
Q 2509 4066 2509 3481 
Q 2509 2891 2217 2550 
Q 1925 2209 1428 2209 
Q 931 2209 642 2551 
Q 353 2894 353 3481 
Q 353 4063 643 4406 
Q 934 4750 1428 4750 
z
" transform="scale(0.015625)"/>
      </defs>
      <use xlink:href="#DejaVuSans-43"/>
      <use xlink:href="#DejaVuSans-23" x="69.824219"/>
      <use xlink:href="#DejaVuSans-3a" x="153.613281"/>
      <use xlink:href="#DejaVuSans-20" x="187.304688"/>
      <use xlink:href="#DejaVuSans-34" x="219.091797"/>
      <use xlink:href="#DejaVuSans-31" x="282.714844"/>
      <use xlink:href="#DejaVuSans-2e" x="346.337891"/>
      <use xlink:href="#DejaVuSans-36" x="378.125"/>
      <use xlink:href="#DejaVuSans-34" x="441.748047"/>
      <use xlink:href="#DejaVuSans-25" x="505.371094"/>
     </g>
    </g>
    <g id="patch_11">
     <path d="M 127.178571 67.322813 
L 147.178571 67.322813 
L 147.178571 60.322813 
L 127.178571 60.322813 
z
" style="fill: #3572a5"/>
    </g>
    <g id="text_3">
     <!-- Python: 21.82% -->
     <g transform="translate(155.178571 67.322813) scale(0.1 -0.1)">
      <defs>
       <path id="DejaVuSans-50" d="M 1259 4147 
L 1259 2394 
L 2053 2394 
Q 2494 2394 2734 2622 
Q 2975 2850 2975 3272 
Q 2975 3691 2734 3919 
Q 2494 4147 2053 4147 
L 1259 4147 
z
M 628 4666 
L 2053 4666 
Q 2838 4666 3239 4311 
Q 3641 3956 3641 3272 
Q 3641 2581 3239 2228 
Q 2838 1875 2053 1875 
L 1259 1875 
L 1259 0 
L 628 0 
L 628 4666 
z
" transform="scale(0.015625)"/>
       <path id="DejaVuSans-6f" d="M 1959 3097 
Q 1497 3097 1228 2736 
Q 959 2375 959 1747 
Q 959 1119 1226 758 
Q 1494 397 1959 397 
Q 2419 397 2687 759 
Q 2956 1122 2956 1747 
Q 2956 2369 2687 2733 
Q 2419 3097 1959 3097 
z
M 1959 3584 
Q 2709 3584 3137 3096 
Q 3566 2609 3566 1747 
Q 3566 888 3137 398 
Q 2709 -91 1959 -91 
Q 1206 -91 779 398 
Q 353 888 353 1747 
Q 353 2609 779 3096 
Q 1206 3584 1959 3584 
z
" transform="scale(0.015625)"/>
       <path id="DejaVuSans-6e" d="M 3513 2113 
L 3513 0 
L 2938 0 
L 2938 2094 
Q 2938 2591 2744 2837 
Q 2550 3084 2163 3084 
Q 1697 3084 1428 2787 
Q 1159 2491 1159 1978 
L 1159 0 
L 581 0 
L 581 3500 
L 1159 3500 
L 1159 2956 
Q 1366 3272 1645 3428 
Q 1925 3584 2291 3584 
Q 2894 3584 3203 3211 
Q 3513 2838 3513 2113 
z
" transform="scale(0.015625)"/>
       <path id="DejaVuSans-32" d="M 1228 531 
L 3431 531 
L 3431 0 
L 469 0 
L 469 531 
Q 828 903 1448 1529 
Q 2069 2156 2228 2338 
Q 2531 2678 2651 2914 
Q 2772 3150 2772 3378 
Q 2772 3750 2511 3984 
Q 2250 4219 1831 4219 
Q 1534 4219 1204 4116 
Q 875 4013 500 3803 
L 500 4441 
Q 881 4594 1212 4672 
Q 1544 4750 1819 4750 
Q 2544 4750 2975 4387 
Q 3406 4025 3406 3419 
Q 3406 3131 3298 2873 
Q 3191 2616 2906 2266 
Q 2828 2175 2409 1742 
Q 1991 1309 1228 531 
z
" transform="scale(0.015625)"/>
       <path id="DejaVuSans-38" d="M 2034 2216 
Q 1584 2216 1326 1975 
Q 1069 1734 1069 1313 
Q 1069 891 1326 650 
Q 1584 409 2034 409 
Q 2484 409 2743 651 
Q 3003 894 3003 1313 
Q 3003 1734 2745 1975 
Q 2488 2216 2034 2216 
z
M 1403 2484 
Q 997 2584 770 2862 
Q 544 3141 544 3541 
Q 544 4100 942 4425 
Q 1341 4750 2034 4750 
Q 2731 4750 3128 4425 
Q 3525 4100 3525 3541 
Q 3525 3141 3298 2862 
Q 3072 2584 2669 2484 
Q 3125 2378 3379 2068 
Q 3634 1759 3634 1313 
Q 3634 634 3220 271 
Q 2806 -91 2034 -91 
Q 1263 -91 848 271 
Q 434 634 434 1313 
Q 434 1759 690 2068 
Q 947 2378 1403 2484 
z
M 1172 3481 
Q 1172 3119 1398 2916 
Q 1625 2713 2034 2713 
Q 2441 2713 2670 2916 
Q 2900 3119 2900 3481 
Q 2900 3844 2670 4047 
Q 2441 4250 2034 4250 
Q 1625 4250 1398 4047 
Q 1172 3844 1172 3481 
z
" transform="scale(0.015625)"/>
      </defs>
      <use xlink:href="#DejaVuSans-50"/>
      <use xlink:href="#DejaVuSans-79" x="60.302734"/>
      <use xlink:href="#DejaVuSans-74" x="119.482422"/>
      <use xlink:href="#DejaVuSans-68" x="158.691406"/>
      <use xlink:href="#DejaVuSans-6f" x="222.070312"/>
      <use xlink:href="#DejaVuSans-6e" x="283.251953"/>
      <use xlink:href="#DejaVuSans-3a" x="346.630859"/>
      <use xlink:href="#DejaVuSans-20" x="380.322266"/>
      <use xlink:href="#DejaVuSans-32" x="412.109375"/>
      <use xlink:href="#DejaVuSans-31" x="475.732422"/>
      <use xlink:href="#DejaVuSans-2e" x="539.355469"/>
      <use xlink:href="#DejaVuSans-38" x="571.142578"/>
      <use xlink:href="#DejaVuSans-32" x="634.765625"/>
      <use xlink:href="#DejaVuSans-25" x="698.388672"/>
     </g>
    </g>
    <g id="patch_12">
     <path d="M 127.178571 82.000938 
L 147.178571 82.000938 
L 147.178571 75.000938 
L 127.178571 75.000938 
z
" style="fill: #3d6117"/>
    </g>
    <g id="text_4">
     <!-- TeX: 18.81% -->
     <g transform="translate(155.178571 82.000938) scale(0.1 -0.1)">
      <defs>
       <path id="DejaVuSans-54" d="M -19 4666 
L 3928 4666 
L 3928 4134 
L 2272 4134 
L 2272 0 
L 1638 0 
L 1638 4134 
L -19 4134 
L -19 4666 
z
" transform="scale(0.015625)"/>
       <path id="DejaVuSans-65" d="M 3597 1894 
L 3597 1613 
L 953 1613 
Q 991 1019 1311 708 
Q 1631 397 2203 397 
Q 2534 397 2845 478 
Q 3156 559 3463 722 
L 3463 178 
Q 3153 47 2828 -22 
Q 2503 -91 2169 -91 
Q 1331 -91 842 396 
Q 353 884 353 1716 
Q 353 2575 817 3079 
Q 1281 3584 2069 3584 
Q 2775 3584 3186 3129 
Q 3597 2675 3597 1894 
z
M 3022 2063 
Q 3016 2534 2758 2815 
Q 2500 3097 2075 3097 
Q 1594 3097 1305 2825 
Q 1016 2553 972 2059 
L 3022 2063 
z
" transform="scale(0.015625)"/>
       <path id="DejaVuSans-58" d="M 403 4666 
L 1081 4666 
L 2241 2931 
L 3406 4666 
L 4084 4666 
L 2584 2425 
L 4184 0 
L 3506 0 
L 2194 1984 
L 872 0 
L 191 0 
L 1856 2491 
L 403 4666 
z
" transform="scale(0.015625)"/>
      </defs>
      <use xlink:href="#DejaVuSans-54"/>
      <use xlink:href="#DejaVuSans-65" x="44.083984"/>
      <use xlink:href="#DejaVuSans-58" x="105.607422"/>
      <use xlink:href="#DejaVuSans-3a" x="174.113281"/>
      <use xlink:href="#DejaVuSans-20" x="207.804688"/>
      <use xlink:href="#DejaVuSans-31" x="239.591797"/>
      <use xlink:href="#DejaVuSans-38" x="303.214844"/>
      <use xlink:href="#DejaVuSans-2e" x="366.837891"/>
      <use xlink:href="#DejaVuSans-38" x="398.625"/>
      <use xlink:href="#DejaVuSans-31" x="462.248047"/>
      <use xlink:href="#DejaVuSans-25" x="525.871094"/>
     </g>
    </g>
    <g id="patch_13">
     <path d="M 127.178571 96.679063 
L 147.178571 96.679063 
L 147.178571 89.679063 
L 127.178571 89.679063 
z
" style="fill: #dea584"/>
    </g>
    <g id="text_5">
     <!-- Rust: 12.83% -->
     <g transform="translate(155.178571 96.679063) scale(0.1 -0.1)">
      <defs>
       <path id="DejaVuSans-52" d="M 2841 2188 
Q 3044 2119 3236 1894 
Q 3428 1669 3622 1275 
L 4263 0 
L 3584 0 
L 2988 1197 
Q 2756 1666 2539 1819 
Q 2322 1972 1947 1972 
L 1259 1972 
L 1259 0 
L 628 0 
L 628 4666 
L 2053 4666 
Q 2853 4666 3247 4331 
Q 3641 3997 3641 3322 
Q 3641 2881 3436 2590 
Q 3231 2300 2841 2188 
z
M 1259 4147 
L 1259 2491 
L 2053 2491 
Q 2509 2491 2742 2702 
Q 2975 2913 2975 3322 
Q 2975 3731 2742 3939 
Q 2509 4147 2053 4147 
L 1259 4147 
z
" transform="scale(0.015625)"/>
       <path id="DejaVuSans-33" d="M 2597 2516 
Q 3050 2419 3304 2112 
Q 3559 1806 3559 1356 
Q 3559 666 3084 287 
Q 2609 -91 1734 -91 
Q 1441 -91 1130 -33 
Q 819 25 488 141 
L 488 750 
Q 750 597 1062 519 
Q 1375 441 1716 441 
Q 2309 441 2620 675 
Q 2931 909 2931 1356 
Q 2931 1769 2642 2001 
Q 2353 2234 1838 2234 
L 1294 2234 
L 1294 2753 
L 1863 2753 
Q 2328 2753 2575 2939 
Q 2822 3125 2822 3475 
Q 2822 3834 2567 4026 
Q 2313 4219 1838 4219 
Q 1578 4219 1281 4162 
Q 984 4106 628 3988 
L 628 4550 
Q 988 4650 1302 4700 
Q 1616 4750 1894 4750 
Q 2613 4750 3031 4423 
Q 3450 4097 3450 3541 
Q 3450 3153 3228 2886 
Q 3006 2619 2597 2516 
z
" transform="scale(0.015625)"/>
      </defs>
      <use xlink:href="#DejaVuSans-52"/>
      <use xlink:href="#DejaVuSans-75" x="64.982422"/>
      <use xlink:href="#DejaVuSans-73" x="128.361328"/>
      <use xlink:href="#DejaVuSans-74" x="180.460938"/>
      <use xlink:href="#DejaVuSans-3a" x="219.669922"/>
      <use xlink:href="#DejaVuSans-20" x="253.361328"/>
      <use xlink:href="#DejaVuSans-31" x="285.148438"/>
      <use xlink:href="#DejaVuSans-32" x="348.771484"/>
      <use xlink:href="#DejaVuSans-2e" x="412.394531"/>
      <use xlink:href="#DejaVuSans-38" x="444.181641"/>
      <use xlink:href="#DejaVuSans-33" x="507.804688"/>
      <use xlink:href="#DejaVuSans-25" x="571.427734"/>
     </g>
    </g>
    <g id="patch_14">
     <path d="M 127.178571 111.357188 
L 147.178571 111.357188 
L 147.178571 104.357188 
L 127.178571 104.357188 
z
" style="fill: #f1e05a"/>
    </g>
    <g id="text_6">
     <!-- JavaScript: 2.15% -->
     <g transform="translate(155.178571 111.357188) scale(0.1 -0.1)">
      <defs>
       <path id="DejaVuSans-4a" d="M 628 4666 
L 1259 4666 
L 1259 325 
Q 1259 -519 939 -900 
Q 619 -1281 -91 -1281 
L -331 -1281 
L -331 -750 
L -134 -750 
Q 284 -750 456 -515 
Q 628 -281 628 325 
L 628 4666 
z
" transform="scale(0.015625)"/>
       <path id="DejaVuSans-76" d="M 191 3500 
L 800 3500 
L 1894 563 
L 2988 3500 
L 3597 3500 
L 2284 0 
L 1503 0 
L 191 3500 
z
" transform="scale(0.015625)"/>
       <path id="DejaVuSans-53" d="M 3425 4513 
L 3425 3897 
Q 3066 4069 2747 4153 
Q 2428 4238 2131 4238 
Q 1616 4238 1336 4038 
Q 1056 3838 1056 3469 
Q 1056 3159 1242 3001 
Q 1428 2844 1947 2747 
L 2328 2669 
Q 3034 2534 3370 2195 
Q 3706 1856 3706 1288 
Q 3706 609 3251 259 
Q 2797 -91 1919 -91 
Q 1588 -91 1214 -16 
Q 841 59 441 206 
L 441 856 
Q 825 641 1194 531 
Q 1563 422 1919 422 
Q 2459 422 2753 634 
Q 3047 847 3047 1241 
Q 3047 1584 2836 1778 
Q 2625 1972 2144 2069 
L 1759 2144 
Q 1053 2284 737 2584 
Q 422 2884 422 3419 
Q 422 4038 858 4394 
Q 1294 4750 2059 4750 
Q 2388 4750 2728 4690 
Q 3069 4631 3425 4513 
z
" transform="scale(0.015625)"/>
       <path id="DejaVuSans-63" d="M 3122 3366 
L 3122 2828 
Q 2878 2963 2633 3030 
Q 2388 3097 2138 3097 
Q 1578 3097 1268 2742 
Q 959 2388 959 1747 
Q 959 1106 1268 751 
Q 1578 397 2138 397 
Q 2388 397 2633 464 
Q 2878 531 3122 666 
L 3122 134 
Q 2881 22 2623 -34 
Q 2366 -91 2075 -91 
Q 1284 -91 818 406 
Q 353 903 353 1747 
Q 353 2603 823 3093 
Q 1294 3584 2113 3584 
Q 2378 3584 2631 3529 
Q 2884 3475 3122 3366 
z
" transform="scale(0.015625)"/>
       <path id="DejaVuSans-72" d="M 2631 2963 
Q 2534 3019 2420 3045 
Q 2306 3072 2169 3072 
Q 1681 3072 1420 2755 
Q 1159 2438 1159 1844 
L 1159 0 
L 581 0 
L 581 3500 
L 1159 3500 
L 1159 2956 
Q 1341 3275 1631 3429 
Q 1922 3584 2338 3584 
Q 2397 3584 2469 3576 
Q 2541 3569 2628 3553 
L 2631 2963 
z
" transform="scale(0.015625)"/>
       <path id="DejaVuSans-70" d="M 1159 525 
L 1159 -1331 
L 581 -1331 
L 581 3500 
L 1159 3500 
L 1159 2969 
Q 1341 3281 1617 3432 
Q 1894 3584 2278 3584 
Q 2916 3584 3314 3078 
Q 3713 2572 3713 1747 
Q 3713 922 3314 415 
Q 2916 -91 2278 -91 
Q 1894 -91 1617 61 
Q 1341 213 1159 525 
z
M 3116 1747 
Q 3116 2381 2855 2742 
Q 2594 3103 2138 3103 
Q 1681 3103 1420 2742 
Q 1159 2381 1159 1747 
Q 1159 1113 1420 752 
Q 1681 391 2138 391 
Q 2594 391 2855 752 
Q 3116 1113 3116 1747 
z
" transform="scale(0.015625)"/>
       <path id="DejaVuSans-35" d="M 691 4666 
L 3169 4666 
L 3169 4134 
L 1269 4134 
L 1269 2991 
Q 1406 3038 1543 3061 
Q 1681 3084 1819 3084 
Q 2600 3084 3056 2656 
Q 3513 2228 3513 1497 
Q 3513 744 3044 326 
Q 2575 -91 1722 -91 
Q 1428 -91 1123 -41 
Q 819 9 494 109 
L 494 744 
Q 775 591 1075 516 
Q 1375 441 1709 441 
Q 2250 441 2565 725 
Q 2881 1009 2881 1497 
Q 2881 1984 2565 2268 
Q 2250 2553 1709 2553 
Q 1456 2553 1204 2497 
Q 953 2441 691 2322 
L 691 4666 
z
" transform="scale(0.015625)"/>
      </defs>
      <use xlink:href="#DejaVuSans-4a"/>
      <use xlink:href="#DejaVuSans-61" x="29.492188"/>
      <use xlink:href="#DejaVuSans-76" x="90.771484"/>
      <use xlink:href="#DejaVuSans-61" x="149.951172"/>
      <use xlink:href="#DejaVuSans-53" x="211.230469"/>
      <use xlink:href="#DejaVuSans-63" x="274.707031"/>
      <use xlink:href="#DejaVuSans-72" x="329.6875"/>
      <use xlink:href="#DejaVuSans-69" x="370.800781"/>
      <use xlink:href="#DejaVuSans-70" x="398.583984"/>
      <use xlink:href="#DejaVuSans-74" x="462.060547"/>
      <use xlink:href="#DejaVuSans-3a" x="501.269531"/>
      <use xlink:href="#DejaVuSans-20" x="534.960938"/>
      <use xlink:href="#DejaVuSans-32" x="566.748047"/>
      <use xlink:href="#DejaVuSans-2e" x="630.371094"/>
      <use xlink:href="#DejaVuSans-31" x="662.158203"/>
      <use xlink:href="#DejaVuSans-35" x="725.78125"/>
      <use xlink:href="#DejaVuSans-25" x="789.404297"/>
     </g>
    </g>
    <g id="patch_15">
     <path d="M 127.178571 126.035313 
L 147.178571 126.035313 
L 147.178571 119.035313 
L 127.178571 119.035313 
z
" style="fill: #f34b7d"/>
    </g>
    <g id="text_7">
     <!-- C++: 1.33% -->
     <g transform="translate(155.178571 126.035313) scale(0.1 -0.1)">
      <defs>
       <path id="DejaVuSans-2b" d="M 2944 4013 
L 2944 2272 
L 4684 2272 
L 4684 1741 
L 2944 1741 
L 2944 0 
L 2419 0 
L 2419 1741 
L 678 1741 
L 678 2272 
L 2419 2272 
L 2419 4013 
L 2944 4013 
z
" transform="scale(0.015625)"/>
      </defs>
      <use xlink:href="#DejaVuSans-43"/>
      <use xlink:href="#DejaVuSans-2b" x="69.824219"/>
      <use xlink:href="#DejaVuSans-2b" x="153.613281"/>
      <use xlink:href="#DejaVuSans-3a" x="237.402344"/>
      <use xlink:href="#DejaVuSans-20" x="271.09375"/>
      <use xlink:href="#DejaVuSans-31" x="302.880859"/>
      <use xlink:href="#DejaVuSans-2e" x="366.503906"/>
      <use xlink:href="#DejaVuSans-33" x="398.291016"/>
      <use xlink:href="#DejaVuSans-33" x="461.914062"/>
      <use xlink:href="#DejaVuSans-25" x="525.537109"/>
     </g>
    </g>
    <g id="patch_16">
     <path d="M 127.178571 140.713437 
L 147.178571 140.713437 
L 147.178571 133.713437 
L 127.178571 133.713437 
z
" style="fill: #aaaaaa"/>
    </g>
    <g id="text_8">
     <!-- Others: 1.41% -->
     <g transform="translate(155.178571 140.713437) scale(0.1 -0.1)">
      <defs>
       <path id="DejaVuSans-4f" d="M 2522 4238 
Q 1834 4238 1429 3725 
Q 1025 3213 1025 2328 
Q 1025 1447 1429 934 
Q 1834 422 2522 422 
Q 3209 422 3611 934 
Q 4013 1447 4013 2328 
Q 4013 3213 3611 3725 
Q 3209 4238 2522 4238 
z
M 2522 4750 
Q 3503 4750 4090 4092 
Q 4678 3434 4678 2328 
Q 4678 1225 4090 567 
Q 3503 -91 2522 -91 
Q 1538 -91 948 565 
Q 359 1222 359 2328 
Q 359 3434 948 4092 
Q 1538 4750 2522 4750 
z
" transform="scale(0.015625)"/>
      </defs>
      <use xlink:href="#DejaVuSans-4f"/>
      <use xlink:href="#DejaVuSans-74" x="78.710938"/>
      <use xlink:href="#DejaVuSans-68" x="117.919922"/>
      <use xlink:href="#DejaVuSans-65" x="181.298828"/>
      <use xlink:href="#DejaVuSans-72" x="242.822266"/>
      <use xlink:href="#DejaVuSans-73" x="283.935547"/>
      <use xlink:href="#DejaVuSans-3a" x="336.035156"/>
      <use xlink:href="#DejaVuSans-20" x="369.726562"/>
      <use xlink:href="#DejaVuSans-31" x="401.513672"/>
      <use xlink:href="#DejaVuSans-2e" x="465.136719"/>
      <use xlink:href="#DejaVuSans-34" x="496.923828"/>
      <use xlink:href="#DejaVuSans-31" x="560.546875"/>
      <use xlink:href="#DejaVuSans-25" x="624.169922"/>
     </g>
    </g>
   </g>
  </g>
  <g id="axes_2">
   <g id="patch_17">
    <path d="M 298.428571 170.289554 
L 446.4 170.289554 
L 446.4 22.318125 
L 298.428571 22.318125 
z
" style="fill: #ffffff"/>
   </g>
   <g id="PathCollection_1">
    <defs>
     <path id="m7bb69bd892" d="M 0 3 
C 0.795609 3 1.55874 2.683901 2.12132 2.12132 
C 2.683901 1.55874 3 0.795609 3 0 
C 3 -0.795609 2.683901 -1.55874 2.12132 -2.12132 
C 1.55874 -2.683901 0.795609 -3 0 -3 
C -0.795609 -3 -1.55874 -2.683901 -2.12132 -2.12132 
C -2.683901 -1.55874 -3 -0.795609 -3 0 
C -3 0.795609 -2.683901 1.55874 -2.12132 2.12132 
C -1.55874 2.683901 -0.795609 3 0 3 
z
" style="stroke: #dea584; stroke-opacity: 0.7"/>
    </defs>
    <g clip-path="url(#p99bc2ed705)">
     <use xlink:href="#m7bb69bd892" x="432.948052" y="78.614528" style="fill: #dea584; fill-opacity: 0.7; stroke: #dea584; stroke-opacity: 0.7"/>
     <use xlink:href="#m7bb69bd892" x="432.948052" y="162.608491" style="fill: #dea584; fill-opacity: 0.7; stroke: #dea584; stroke-opacity: 0.7"/>
     <use xlink:href="#m7bb69bd892" x="432.948052" y="146.546865" style="fill: #dea584; fill-opacity: 0.7; stroke: #dea584; stroke-opacity: 0.7"/>
     <use xlink:href="#m7bb69bd892" x="432.948052" y="64.597598" style="fill: #dea584; fill-opacity: 0.7; stroke: #dea584; stroke-opacity: 0.7"/>
     <use xlink:href="#m7bb69bd892" x="397.542525" y="64.086424" style="fill: #dea584; fill-opacity: 0.7; stroke: #dea584; stroke-opacity: 0.7"/>
     <use xlink:href="#m7bb69bd892" x="432.948052" y="103.029813" style="fill: #dea584; fill-opacity: 0.7; stroke: #dea584; stroke-opacity: 0.7"/>
     <use xlink:href="#m7bb69bd892" x="432.948052" y="103.029813" style="fill: #dea584; fill-opacity: 0.7; stroke: #dea584; stroke-opacity: 0.7"/>
     <use xlink:href="#m7bb69bd892" x="432.948052" y="103.029813" style="fill: #dea584; fill-opacity: 0.7; stroke: #dea584; stroke-opacity: 0.7"/>
     <use xlink:href="#m7bb69bd892" x="432.948052" y="58.19447" style="fill: #dea584; fill-opacity: 0.7; stroke: #dea584; stroke-opacity: 0.7"/>
     <use xlink:href="#m7bb69bd892" x="432.948052" y="51.912411" style="fill: #dea584; fill-opacity: 0.7; stroke: #dea584; stroke-opacity: 0.7"/>
    </g>
   </g>
   <g id="PathCollection_2">
    <defs>
     <path id="md8aad6857b" d="M 0 3 
C 0.795609 3 1.55874 2.683901 2.12132 2.12132 
C 2.683901 1.55874 3 0.795609 3 0 
C 3 -0.795609 2.683901 -1.55874 2.12132 -2.12132 
C 1.55874 -2.683901 0.795609 -3 0 -3 
C -0.795609 -3 -1.55874 -2.683901 -2.12132 -2.12132 
C -2.683901 -1.55874 -3 -0.795609 -3 0 
C -3 0.795609 -2.683901 1.55874 -2.12132 2.12132 
C -1.55874 2.683901 -0.795609 3 0 3 
z
" style="stroke: #f34b7d; stroke-opacity: 0.7"/>
    </defs>
    <g clip-path="url(#p99bc2ed705)">
     <use xlink:href="#md8aad6857b" x="430.553605" y="117.423398" style="fill: #f34b7d; fill-opacity: 0.7; stroke: #f34b7d; stroke-opacity: 0.7"/>
     <use xlink:href="#md8aad6857b" x="432.948052" y="81.547052" style="fill: #f34b7d; fill-opacity: 0.7; stroke: #f34b7d; stroke-opacity: 0.7"/>
     <use xlink:href="#md8aad6857b" x="432.948052" y="75.951042" style="fill: #f34b7d; fill-opacity: 0.7; stroke: #f34b7d; stroke-opacity: 0.7"/>
     <use xlink:href="#md8aad6857b" x="432.948052" y="104.87273" style="fill: #f34b7d; fill-opacity: 0.7; stroke: #f34b7d; stroke-opacity: 0.7"/>
     <use xlink:href="#md8aad6857b" x="427.230974" y="95.254587" style="fill: #f34b7d; fill-opacity: 0.7; stroke: #f34b7d; stroke-opacity: 0.7"/>
     <use xlink:href="#md8aad6857b" x="432.948052" y="152.317751" style="fill: #f34b7d; fill-opacity: 0.7; stroke: #f34b7d; stroke-opacity: 0.7"/>
     <use xlink:href="#md8aad6857b" x="364.047174" y="61.396034" style="fill: #f34b7d; fill-opacity: 0.7; stroke: #f34b7d; stroke-opacity: 0.7"/>
     <use xlink:href="#md8aad6857b" x="432.948052" y="48.240029" style="fill: #f34b7d; fill-opacity: 0.7; stroke: #f34b7d; stroke-opacity: 0.7"/>
     <use xlink:href="#md8aad6857b" x="428.85866" y="78.278229" style="fill: #f34b7d; fill-opacity: 0.7; stroke: #f34b7d; stroke-opacity: 0.7"/>
     <use xlink:href="#md8aad6857b" x="417.384148" y="134.91093" style="fill: #f34b7d; fill-opacity: 0.7; stroke: #f34b7d; stroke-opacity: 0.7"/>
     <use xlink:href="#md8aad6857b" x="432.948052" y="137.238117" style="fill: #f34b7d; fill-opacity: 0.7; stroke: #f34b7d; stroke-opacity: 0.7"/>
     <use xlink:href="#md8aad6857b" x="424.217738" y="51.199457" style="fill: #f34b7d; fill-opacity: 0.7; stroke: #f34b7d; stroke-opacity: 0.7"/>
     <use xlink:href="#md8aad6857b" x="425.226634" y="43.061029" style="fill: #f34b7d; fill-opacity: 0.7; stroke: #f34b7d; stroke-opacity: 0.7"/>
     <use xlink:href="#md8aad6857b" x="411.707426" y="36.200535" style="fill: #f34b7d; fill-opacity: 0.7; stroke: #f34b7d; stroke-opacity: 0.7"/>
     <use xlink:href="#md8aad6857b" x="371.243966" y="88.838008" style="fill: #f34b7d; fill-opacity: 0.7; stroke: #f34b7d; stroke-opacity: 0.7"/>
     <use xlink:href="#md8aad6857b" x="432.948052" y="64.812829" style="fill: #f34b7d; fill-opacity: 0.7; stroke: #f34b7d; stroke-opacity: 0.7"/>
     <use xlink:href="#md8aad6857b" x="432.948052" y="43.626011" style="fill: #f34b7d; fill-opacity: 0.7; stroke: #f34b7d; stroke-opacity: 0.7"/>
     <use xlink:href="#md8aad6857b" x="432.948052" y="43.626011" style="fill: #f34b7d; fill-opacity: 0.7; stroke: #f34b7d; stroke-opacity: 0.7"/>
     <use xlink:href="#md8aad6857b" x="410.375683" y="83.161286" style="fill: #f34b7d; fill-opacity: 0.7; stroke: #f34b7d; stroke-opacity: 0.7"/>
     <use xlink:href="#md8aad6857b" x="408.680738" y="78.305133" style="fill: #f34b7d; fill-opacity: 0.7; stroke: #f34b7d; stroke-opacity: 0.7"/>
     <use xlink:href="#md8aad6857b" x="429.181506" y="70.745138" style="fill: #f34b7d; fill-opacity: 0.7; stroke: #f34b7d; stroke-opacity: 0.7"/>
     <use xlink:href="#md8aad6857b" x="342.187758" y="36.308151" style="fill: #f34b7d; fill-opacity: 0.7; stroke: #f34b7d; stroke-opacity: 0.7"/>
     <use xlink:href="#md8aad6857b" x="431.952608" y="56.701304" style="fill: #f34b7d; fill-opacity: 0.7; stroke: #f34b7d; stroke-opacity: 0.7"/>
     <use xlink:href="#md8aad6857b" x="422.078878" y="35.837333" style="fill: #f34b7d; fill-opacity: 0.7; stroke: #f34b7d; stroke-opacity: 0.7"/>
     <use xlink:href="#md8aad6857b" x="429.100795" y="83.295806" style="fill: #f34b7d; fill-opacity: 0.7; stroke: #f34b7d; stroke-opacity: 0.7"/>
     <use xlink:href="#md8aad6857b" x="373.638413" y="65.498878" style="fill: #f34b7d; fill-opacity: 0.7; stroke: #f34b7d; stroke-opacity: 0.7"/>
     <use xlink:href="#md8aad6857b" x="422.401725" y="146.183663" style="fill: #f34b7d; fill-opacity: 0.7; stroke: #f34b7d; stroke-opacity: 0.7"/>
     <use xlink:href="#md8aad6857b" x="422.50934" y="48.818463" style="fill: #f34b7d; fill-opacity: 0.7; stroke: #f34b7d; stroke-opacity: 0.7"/>
     <use xlink:href="#md8aad6857b" x="430.392182" y="35.770073" style="fill: #f34b7d; fill-opacity: 0.7; stroke: #f34b7d; stroke-opacity: 0.7"/>
     <use xlink:href="#md8aad6857b" x="430.419086" y="112.271302" style="fill: #f34b7d; fill-opacity: 0.7; stroke: #f34b7d; stroke-opacity: 0.7"/>
     <use xlink:href="#md8aad6857b" x="372.400834" y="47.379104" style="fill: #f34b7d; fill-opacity: 0.7; stroke: #f34b7d; stroke-opacity: 0.7"/>
     <use xlink:href="#md8aad6857b" x="430.230758" y="41.796546" style="fill: #f34b7d; fill-opacity: 0.7; stroke: #f34b7d; stroke-opacity: 0.7"/>
     <use xlink:href="#md8aad6857b" x="395.282597" y="73.852538" style="fill: #f34b7d; fill-opacity: 0.7; stroke: #f34b7d; stroke-opacity: 0.7"/>
     <use xlink:href="#md8aad6857b" x="394.798327" y="148.578109" style="fill: #f34b7d; fill-opacity: 0.7; stroke: #f34b7d; stroke-opacity: 0.7"/>
     <use xlink:href="#md8aad6857b" x="417.115109" y="54.683512" style="fill: #f34b7d; fill-opacity: 0.7; stroke: #f34b7d; stroke-opacity: 0.7"/>
    </g>
   </g>
   <g id="PathCollection_3">
    <defs>
     <path id="mda9548e736" d="M 0 3 
C 0.795609 3 1.55874 2.683901 2.12132 2.12132 
C 2.683901 1.55874 3 0.795609 3 0 
C 3 -0.795609 2.683901 -1.55874 2.12132 -2.12132 
C 1.55874 -2.683901 0.795609 -3 0 -3 
C -0.795609 -3 -1.55874 -2.683901 -2.12132 -2.12132 
C -2.683901 -1.55874 -3 -0.795609 -3 0 
C -3 0.795609 -2.683901 1.55874 -2.12132 2.12132 
C -1.55874 2.683901 -0.795609 3 0 3 
z
" style="stroke: #3572a5; stroke-opacity: 0.7"/>
    </defs>
    <g clip-path="url(#p99bc2ed705)">
     <use xlink:href="#mda9548e736" x="430.028979" y="37.343951" style="fill: #3572a5; fill-opacity: 0.7; stroke: #3572a5; stroke-opacity: 0.7"/>
     <use xlink:href="#mda9548e736" x="431.750829" y="100.608463" style="fill: #3572a5; fill-opacity: 0.7; stroke: #3572a5; stroke-opacity: 0.7"/>
     <use xlink:href="#mda9548e736" x="413.859738" y="103.514083" style="fill: #3572a5; fill-opacity: 0.7; stroke: #3572a5; stroke-opacity: 0.7"/>
     <use xlink:href="#mda9548e736" x="428.226418" y="70.301224" style="fill: #3572a5; fill-opacity: 0.7; stroke: #3572a5; stroke-opacity: 0.7"/>
     <use xlink:href="#mda9548e736" x="429.41019" y="158.276964" style="fill: #3572a5; fill-opacity: 0.7; stroke: #3572a5; stroke-opacity: 0.7"/>
     <use xlink:href="#mda9548e736" x="396.049358" y="102.236148" style="fill: #3572a5; fill-opacity: 0.7; stroke: #3572a5; stroke-opacity: 0.7"/>
     <use xlink:href="#mda9548e736" x="432.504138" y="148.605013" style="fill: #3572a5; fill-opacity: 0.7; stroke: #3572a5; stroke-opacity: 0.7"/>
     <use xlink:href="#mda9548e736" x="431.253106" y="115.876424" style="fill: #3572a5; fill-opacity: 0.7; stroke: #3572a5; stroke-opacity: 0.7"/>
    </g>
   </g>
   <g id="PathCollection_4">
    <defs>
     <path id="m77ab5635ba" d="M 0 3 
C 0.795609 3 1.55874 2.683901 2.12132 2.12132 
C 2.683901 1.55874 3 0.795609 3 0 
C 3 -0.795609 2.683901 -1.55874 2.12132 -2.12132 
C 1.55874 -2.683901 0.795609 -3 0 -3 
C -0.795609 -3 -1.55874 -2.683901 -2.12132 -2.12132 
C -2.683901 -1.55874 -3 -0.795609 -3 0 
C -3 0.795609 -2.683901 1.55874 -2.12132 2.12132 
C -1.55874 2.683901 -0.795609 3 0 3 
z
" style="stroke: #3178c6; stroke-opacity: 0.7"/>
    </defs>
    <g clip-path="url(#p99bc2ed705)">
     <use xlink:href="#m77ab5635ba" x="385.556839" y="86.416657" style="fill: #3178c6; fill-opacity: 0.7; stroke: #3178c6; stroke-opacity: 0.7"/>
     <use xlink:href="#m77ab5635ba" x="381.467447" y="62.929556" style="fill: #3178c6; fill-opacity: 0.7; stroke: #3178c6; stroke-opacity: 0.7"/>
    </g>
   </g>
   <g id="matplotlib.axis_1">
    <g id="xtick_1">
     <g id="line2d_1">
      <defs>
       <path id="mdc6772d3a7" d="M 0 0 
L 0 3.5 
" style="stroke: #000000; stroke-width: 0.8"/>
      </defs>
      <g>
       <use xlink:href="#mdc6772d3a7" x="298.428571" y="170.289554" style="stroke: #000000; stroke-width: 0.8"/>
      </g>
     </g>
     <g id="text_9">
      <!-- 0 -->
      <g transform="translate(295.247321 184.887991) scale(0.1 -0.1)">
       <defs>
        <path id="DejaVuSans-30" d="M 2034 4250 
Q 1547 4250 1301 3770 
Q 1056 3291 1056 2328 
Q 1056 1369 1301 889 
Q 1547 409 2034 409 
Q 2525 409 2770 889 
Q 3016 1369 3016 2328 
Q 3016 3291 2770 3770 
Q 2525 4250 2034 4250 
z
M 2034 4750 
Q 2819 4750 3233 4129 
Q 3647 3509 3647 2328 
Q 3647 1150 3233 529 
Q 2819 -91 2034 -91 
Q 1250 -91 836 529 
Q 422 1150 422 2328 
Q 422 3509 836 4129 
Q 1250 4750 2034 4750 
z
" transform="scale(0.015625)"/>
       </defs>
       <use xlink:href="#DejaVuSans-30"/>
      </g>
     </g>
    </g>
    <g id="xtick_2">
     <g id="line2d_2">
      <g>
       <use xlink:href="#mdc6772d3a7" x="325.332468" y="170.289554" style="stroke: #000000; stroke-width: 0.8"/>
      </g>
     </g>
     <g id="text_10">
      <!-- 20 -->
      <g transform="translate(318.969968 184.887991) scale(0.1 -0.1)">
       <use xlink:href="#DejaVuSans-32"/>
       <use xlink:href="#DejaVuSans-30" x="63.623047"/>
      </g>
     </g>
    </g>
    <g id="xtick_3">
     <g id="line2d_3">
      <g>
       <use xlink:href="#mdc6772d3a7" x="352.236364" y="170.289554" style="stroke: #000000; stroke-width: 0.8"/>
      </g>
     </g>
     <g id="text_11">
      <!-- 40 -->
      <g transform="translate(345.873864 184.887991) scale(0.1 -0.1)">
       <use xlink:href="#DejaVuSans-34"/>
       <use xlink:href="#DejaVuSans-30" x="63.623047"/>
      </g>
     </g>
    </g>
    <g id="xtick_4">
     <g id="line2d_4">
      <g>
       <use xlink:href="#mdc6772d3a7" x="379.14026" y="170.289554" style="stroke: #000000; stroke-width: 0.8"/>
      </g>
     </g>
     <g id="text_12">
      <!-- 60 -->
      <g transform="translate(372.77776 184.887991) scale(0.1 -0.1)">
       <use xlink:href="#DejaVuSans-36"/>
       <use xlink:href="#DejaVuSans-30" x="63.623047"/>
      </g>
     </g>
    </g>
    <g id="xtick_5">
     <g id="line2d_5">
      <g>
       <use xlink:href="#mdc6772d3a7" x="406.044156" y="170.289554" style="stroke: #000000; stroke-width: 0.8"/>
      </g>
     </g>
     <g id="text_13">
      <!-- 80 -->
      <g transform="translate(399.681656 184.887991) scale(0.1 -0.1)">
       <use xlink:href="#DejaVuSans-38"/>
       <use xlink:href="#DejaVuSans-30" x="63.623047"/>
      </g>
     </g>
    </g>
    <g id="xtick_6">
     <g id="line2d_6">
      <g>
       <use xlink:href="#mdc6772d3a7" x="432.948052" y="170.289554" style="stroke: #000000; stroke-width: 0.8"/>
      </g>
     </g>
     <g id="text_14">
      <!-- 100 -->
      <g transform="translate(423.404302 184.887991) scale(0.1 -0.1)">
       <use xlink:href="#DejaVuSans-31"/>
       <use xlink:href="#DejaVuSans-30" x="63.623047"/>
       <use xlink:href="#DejaVuSans-30" x="127.246094"/>
      </g>
     </g>
    </g>
    <g id="text_15">
     <!-- Runtime -->
     <g transform="translate(351.531473 198.566116) scale(0.1 -0.1)">
      <defs>
       <path id="DejaVuSans-6d" d="M 3328 2828 
Q 3544 3216 3844 3400 
Q 4144 3584 4550 3584 
Q 5097 3584 5394 3201 
Q 5691 2819 5691 2113 
L 5691 0 
L 5113 0 
L 5113 2094 
Q 5113 2597 4934 2840 
Q 4756 3084 4391 3084 
Q 3944 3084 3684 2787 
Q 3425 2491 3425 1978 
L 3425 0 
L 2847 0 
L 2847 2094 
Q 2847 2600 2669 2842 
Q 2491 3084 2119 3084 
Q 1678 3084 1418 2786 
Q 1159 2488 1159 1978 
L 1159 0 
L 581 0 
L 581 3500 
L 1159 3500 
L 1159 2956 
Q 1356 3278 1631 3431 
Q 1906 3584 2284 3584 
Q 2666 3584 2933 3390 
Q 3200 3197 3328 2828 
z
" transform="scale(0.015625)"/>
      </defs>
      <use xlink:href="#DejaVuSans-52"/>
      <use xlink:href="#DejaVuSans-75" x="64.982422"/>
      <use xlink:href="#DejaVuSans-6e" x="128.361328"/>
      <use xlink:href="#DejaVuSans-74" x="191.740234"/>
      <use xlink:href="#DejaVuSans-69" x="230.949219"/>
      <use xlink:href="#DejaVuSans-6d" x="258.732422"/>
      <use xlink:href="#DejaVuSans-65" x="356.144531"/>
     </g>
    </g>
   </g>
   <g id="matplotlib.axis_2">
    <g id="ytick_1">
     <g id="line2d_7">
      <defs>
       <path id="mfa4ab08e08" d="M 0 0 
L -3.5 0 
" style="stroke: #000000; stroke-width: 0.8"/>
      </defs>
      <g>
       <use xlink:href="#mfa4ab08e08" x="298.428571" y="170.289554" style="stroke: #000000; stroke-width: 0.8"/>
      </g>
     </g>
     <g id="text_16">
      <!-- 0 -->
      <g transform="translate(285.066071 174.088772) scale(0.1 -0.1)">
       <use xlink:href="#DejaVuSans-30"/>
      </g>
     </g>
    </g>
    <g id="ytick_2">
     <g id="line2d_8">
      <g>
       <use xlink:href="#mfa4ab08e08" x="298.428571" y="143.385657" style="stroke: #000000; stroke-width: 0.8"/>
      </g>
     </g>
     <g id="text_17">
      <!-- 20 -->
      <g transform="translate(278.703571 147.184876) scale(0.1 -0.1)">
       <use xlink:href="#DejaVuSans-32"/>
       <use xlink:href="#DejaVuSans-30" x="63.623047"/>
      </g>
     </g>
    </g>
    <g id="ytick_3">
     <g id="line2d_9">
      <g>
       <use xlink:href="#mfa4ab08e08" x="298.428571" y="116.481761" style="stroke: #000000; stroke-width: 0.8"/>
      </g>
     </g>
     <g id="text_18">
      <!-- 40 -->
      <g transform="translate(278.703571 120.28098) scale(0.1 -0.1)">
       <use xlink:href="#DejaVuSans-34"/>
       <use xlink:href="#DejaVuSans-30" x="63.623047"/>
      </g>
     </g>
    </g>
    <g id="ytick_4">
     <g id="line2d_10">
      <g>
       <use xlink:href="#mfa4ab08e08" x="298.428571" y="89.577865" style="stroke: #000000; stroke-width: 0.8"/>
      </g>
     </g>
     <g id="text_19">
      <!-- 60 -->
      <g transform="translate(278.703571 93.377084) scale(0.1 -0.1)">
       <use xlink:href="#DejaVuSans-36"/>
       <use xlink:href="#DejaVuSans-30" x="63.623047"/>
      </g>
     </g>
    </g>
    <g id="ytick_5">
     <g id="line2d_11">
      <g>
       <use xlink:href="#mfa4ab08e08" x="298.428571" y="62.673969" style="stroke: #000000; stroke-width: 0.8"/>
      </g>
     </g>
     <g id="text_20">
      <!-- 80 -->
      <g transform="translate(278.703571 66.473188) scale(0.1 -0.1)">
       <use xlink:href="#DejaVuSans-38"/>
       <use xlink:href="#DejaVuSans-30" x="63.623047"/>
      </g>
     </g>
    </g>
    <g id="ytick_6">
     <g id="line2d_12">
      <g>
       <use xlink:href="#mfa4ab08e08" x="298.428571" y="35.770073" style="stroke: #000000; stroke-width: 0.8"/>
      </g>
     </g>
     <g id="text_21">
      <!-- 100 -->
      <g transform="translate(272.341071 39.569292) scale(0.1 -0.1)">
       <use xlink:href="#DejaVuSans-31"/>
       <use xlink:href="#DejaVuSans-30" x="63.623047"/>
       <use xlink:href="#DejaVuSans-30" x="127.246094"/>
      </g>
     </g>
    </g>
    <g id="text_22">
     <!-- Memory -->
     <g transform="translate(266.261384 116.638996) rotate(-90) scale(0.1 -0.1)">
      <use xlink:href="#DejaVuSans-4d"/>
      <use xlink:href="#DejaVuSans-65" x="86.279297"/>
      <use xlink:href="#DejaVuSans-6d" x="147.802734"/>
      <use xlink:href="#DejaVuSans-6f" x="245.214844"/>
      <use xlink:href="#DejaVuSans-72" x="306.396484"/>
      <use xlink:href="#DejaVuSans-79" x="347.509766"/>
     </g>
    </g>
   </g>
   <g id="patch_18">
    <path d="M 298.428571 170.289554 
L 298.428571 22.318125 
" style="fill: none; stroke: #000000; stroke-width: 0.8; stroke-linejoin: miter; stroke-linecap: square"/>
   </g>
   <g id="patch_19">
    <path d="M 446.4 170.289554 
L 446.4 22.318125 
" style="fill: none; stroke: #000000; stroke-width: 0.8; stroke-linejoin: miter; stroke-linecap: square"/>
   </g>
   <g id="patch_20">
    <path d="M 298.428571 170.289554 
L 446.4 170.289554 
" style="fill: none; stroke: #000000; stroke-width: 0.8; stroke-linejoin: miter; stroke-linecap: square"/>
   </g>
   <g id="patch_21">
    <path d="M 298.428571 22.318125 
L 446.4 22.318125 
" style="fill: none; stroke: #000000; stroke-width: 0.8; stroke-linejoin: miter; stroke-linecap: square"/>
   </g>
   <g id="text_23">
    <!-- LeetCode Submission -->
    <g transform="translate(307.847723 16.318125) scale(0.12 -0.12)">
     <defs>
      <path id="DejaVuSans-4c" d="M 628 4666 
L 1259 4666 
L 1259 531 
L 3531 531 
L 3531 0 
L 628 0 
L 628 4666 
z
" transform="scale(0.015625)"/>
      <path id="DejaVuSans-64" d="M 2906 2969 
L 2906 4863 
L 3481 4863 
L 3481 0 
L 2906 0 
L 2906 525 
Q 2725 213 2448 61 
Q 2172 -91 1784 -91 
Q 1150 -91 751 415 
Q 353 922 353 1747 
Q 353 2572 751 3078 
Q 1150 3584 1784 3584 
Q 2172 3584 2448 3432 
Q 2725 3281 2906 2969 
z
M 947 1747 
Q 947 1113 1208 752 
Q 1469 391 1925 391 
Q 2381 391 2643 752 
Q 2906 1113 2906 1747 
Q 2906 2381 2643 2742 
Q 2381 3103 1925 3103 
Q 1469 3103 1208 2742 
Q 947 2381 947 1747 
z
" transform="scale(0.015625)"/>
     </defs>
     <use xlink:href="#DejaVuSans-4c"/>
     <use xlink:href="#DejaVuSans-65" x="53.962891"/>
     <use xlink:href="#DejaVuSans-65" x="115.486328"/>
     <use xlink:href="#DejaVuSans-74" x="177.009766"/>
     <use xlink:href="#DejaVuSans-43" x="216.21875"/>
     <use xlink:href="#DejaVuSans-6f" x="286.042969"/>
     <use xlink:href="#DejaVuSans-64" x="347.224609"/>
     <use xlink:href="#DejaVuSans-65" x="410.701172"/>
     <use xlink:href="#DejaVuSans-20" x="472.224609"/>
     <use xlink:href="#DejaVuSans-53" x="504.011719"/>
     <use xlink:href="#DejaVuSans-75" x="567.488281"/>
     <use xlink:href="#DejaVuSans-62" x="630.867188"/>
     <use xlink:href="#DejaVuSans-6d" x="694.34375"/>
     <use xlink:href="#DejaVuSans-69" x="791.755859"/>
     <use xlink:href="#DejaVuSans-73" x="819.539062"/>
     <use xlink:href="#DejaVuSans-73" x="871.638672"/>
     <use xlink:href="#DejaVuSans-69" x="923.738281"/>
     <use xlink:href="#DejaVuSans-6f" x="951.521484"/>
     <use xlink:href="#DejaVuSans-6e" x="1012.703125"/>
    </g>
   </g>
   <g id="legend_2">
    <g id="patch_22">
     <path d="M 304.728571 165.789554 
L 380.301853 165.789554 
Q 382.101853 165.789554 382.101853 163.989554 
L 382.101853 112.048304 
Q 382.101853 110.248304 380.301853 110.248304 
L 304.728571 110.248304 
Q 302.928571 110.248304 302.928571 112.048304 
L 302.928571 163.989554 
Q 302.928571 165.789554 304.728571 165.789554 
z
" style="fill: #ffffff; opacity: 0.8; stroke: #cccccc; stroke-linejoin: miter"/>
    </g>
    <g id="PathCollection_5">
     <g>
      <use xlink:href="#m7bb69bd892" x="315.528571" y="118.324397" style="fill: #dea584; fill-opacity: 0.7; stroke: #dea584; stroke-opacity: 0.7"/>
     </g>
    </g>
    <g id="text_24">
     <!-- Rust -->
     <g transform="translate(331.728571 120.686897) scale(0.09 -0.09)">
      <use xlink:href="#DejaVuSans-52"/>
      <use xlink:href="#DejaVuSans-75" x="64.982422"/>
      <use xlink:href="#DejaVuSans-73" x="128.361328"/>
      <use xlink:href="#DejaVuSans-74" x="180.460938"/>
     </g>
    </g>
    <g id="PathCollection_6">
     <g>
      <use xlink:href="#md8aad6857b" x="315.528571" y="131.53471" style="fill: #f34b7d; fill-opacity: 0.7; stroke: #f34b7d; stroke-opacity: 0.7"/>
     </g>
    </g>
    <g id="text_25">
     <!-- C++ -->
     <g transform="translate(331.728571 133.89721) scale(0.09 -0.09)">
      <use xlink:href="#DejaVuSans-43"/>
      <use xlink:href="#DejaVuSans-2b" x="69.824219"/>
      <use xlink:href="#DejaVuSans-2b" x="153.613281"/>
     </g>
    </g>
    <g id="PathCollection_7">
     <g>
      <use xlink:href="#mda9548e736" x="315.528571" y="144.745022" style="fill: #3572a5; fill-opacity: 0.7; stroke: #3572a5; stroke-opacity: 0.7"/>
     </g>
    </g>
    <g id="text_26">
     <!-- Python -->
     <g transform="translate(331.728571 147.107522) scale(0.09 -0.09)">
      <use xlink:href="#DejaVuSans-50"/>
      <use xlink:href="#DejaVuSans-79" x="60.302734"/>
      <use xlink:href="#DejaVuSans-74" x="119.482422"/>
      <use xlink:href="#DejaVuSans-68" x="158.691406"/>
      <use xlink:href="#DejaVuSans-6f" x="222.070312"/>
      <use xlink:href="#DejaVuSans-6e" x="283.251953"/>
     </g>
    </g>
    <g id="PathCollection_8">
     <g>
      <use xlink:href="#m77ab5635ba" x="315.528571" y="157.955335" style="fill: #3178c6; fill-opacity: 0.7; stroke: #3178c6; stroke-opacity: 0.7"/>
     </g>
    </g>
    <g id="text_27">
     <!-- TypeScript -->
     <g transform="translate(331.728571 160.317835) scale(0.09 -0.09)">
      <use xlink:href="#DejaVuSans-54"/>
      <use xlink:href="#DejaVuSans-79" x="45.458984"/>
      <use xlink:href="#DejaVuSans-70" x="104.638672"/>
      <use xlink:href="#DejaVuSans-65" x="168.115234"/>
      <use xlink:href="#DejaVuSans-53" x="229.638672"/>
      <use xlink:href="#DejaVuSans-63" x="293.115234"/>
      <use xlink:href="#DejaVuSans-72" x="348.095703"/>
      <use xlink:href="#DejaVuSans-69" x="389.208984"/>
      <use xlink:href="#DejaVuSans-70" x="416.992188"/>
      <use xlink:href="#DejaVuSans-74" x="480.46875"/>
     </g>
    </g>
   </g>
  </g>
 </g>
 <defs>
  <clipPath id="p99bc2ed705">
   <rect x="298.428571" y="22.318125" width="147.971429" height="147.971429"/>
  </clipPath>
 </defs>
</svg>
